<?xml version="1.0" encoding="utf-8"?>
<!-- Generator: Adobe Illustrator 19.2.0, SVG Export Plug-In . SVG Version: 6.00 Build 0)  -->
<svg version="1.1" id="Calque_1" xmlns="http://www.w3.org/2000/svg" xmlns:xlink="http://www.w3.org/1999/xlink" x="0px" y="0px"
	 viewBox="0 0 82 51.4" style="enable-background:new 0 0 82 51.4;" xml:space="preserve">
<style type="text/css">
	.st0{fill:#010202;}
	.st1{fill:#D42144;}
</style>
<g>
	<path class="st0" d="M59,42.1c-0.4,0.1-0.9,0.3-1.4,0.3c-1,0-2-0.6-2-2.4v-5.6h4.1v-4.4h-4.1v-4.3h-5.3l0,4.3h-9.9v13.8
		c0,2.8-0.9,2.8-1.5,2.8c-0.6,0-1.3-0.2-1.3-2.8v-6.5c0-5.4-2.6-7.7-6.8-7.7c-2.6,0-4.9,0.8-7.2,2.2l2,3.7c1.7-0.9,3-1.4,4.1-1.4
		c1.4,0,2.2,0.5,2.3,1.7c-4.1,0.4-6.6,1.4-7.9,2.9c-0.1,0-1,1.3-2.2,2.3c-1.3,1.1-1.7,0.8-2,0.6c-0.3-0.2-0.8-0.5-0.8-1.6V32h-5.6
		v7.7c0,3.7,1.7,7.1,5.5,7.2c1.9,0.1,2.6-0.1,3.9-0.8c0.7-0.4,1.1-0.6,1.5-0.9c0.8,0.9,2.1,1.6,3.6,1.6c1.8,0,3.2-0.8,4.5-2h0
		c0.4,5.9,4.9,6.6,6.9,6.6c5.4,0,6.8-4.6,6.6-7.9v-9.1h3.9V40c0,4,1.8,6.7,6,6.7c1.8,0,3-0.3,3.9-0.6L59,42.1z M32,41.3
		c-0.6,0.7-1.1,1.1-2,1.1c-1,0-1.5-0.4-1.5-1.2c0-0.9,0.9-1.8,3.5-2.2V41.3z"/>
	<path class="st0" d="M43.2,22.3c-1.8,0-3.1,1.2-3.1,2.8s1.3,2.8,3.1,2.8c1.8,0,3.1-1.2,3.1-2.8S45,22.3,43.2,22.3z"/>
	<path class="st0" d="M75.4,51.4c-2.1,0-6.9-0.8-6.9-7.6h0v-9.4h-3.6v-4.4h8.5v0l0.1,0l0,13.8h0c0,2.6,0.7,2.8,1.3,2.8
		c0.6,0,1.5-0.1,1.5-2.8h0l-0.3-20.2h5.6l0.2,20h0C82.1,46.8,80.8,51.4,75.4,51.4z"/>
	<path class="st0" d="M70.8,22.2c-1.8,0-3.1,1.2-3.1,2.8c0,1.6,1.3,2.8,3.1,2.8c1.8,0,3.1-1.2,3.1-2.8C74,23.3,72.6,22.2,70.8,22.2z
		"/>
	<path class="st1" d="M29.6,13.7c0,7.5-6.1,13.7-13.7,13.7H9.3v11.5H0.1V18.2h15.8c2.5,0,4.5-2,4.5-4.5c0-2.5-2-4.5-4.5-4.5H0.1V0
		h15.8C23.4,0,29.6,6.1,29.6,13.7z"/>
	<ellipse class="st1" cx="5.1" cy="46.4" rx="5.1" ry="4.8"/>
</g>
</svg>
